<?xml version="1.0" encoding="utf-8"?>
<!-- Generator: Adobe Illustrator 26.2.1, SVG Export Plug-In . SVG Version: 6.00 Build 0)  -->
<svg version="1.1" id="Layer_1" xmlns="http://www.w3.org/2000/svg" xmlns:xlink="http://www.w3.org/1999/xlink" x="0px" y="0px"
	 viewBox="0 0 448 522" style="enable-background:new 0 0 448 522;" xml:space="preserve">
<style type="text/css">
	.st0{fill-rule:evenodd;clip-rule:evenodd;fill:url(#SVGID_1_);}
</style>
<linearGradient id="SVGID_1_" gradientUnits="userSpaceOnUse" x1="230.7193" y1="186.1086" x2="267.6956" y2="291.4225">
	<stop  offset="0" style="stop-color:#C91B23"/>
	<stop  offset="0.6351" style="stop-color:#E54C23"/>
	<stop  offset="1" style="stop-color:#F26323"/>
</linearGradient>
<path class="st0" d="M298.14,418.28c-1.46,9.35-3.81,18.25-6.93,26.53l-37.59-51.16l31.74,64.25c-4.89,9.38-10.86,17.65-17.67,24.48
	l-31.21-82.24l18.14,92.9c-7.8,5.05-16.31,8.43-25.26,9.8l-8.87-100.28L212.47,503c-9.26-1.23-18.04-4.62-26.09-9.77l18.18-93.07
	l-31.3,82.47c-6.83-6.8-12.82-15.05-17.73-24.4l31.9-64.57l-37.8,51.45c-3.03-7.96-5.34-16.5-6.83-25.47l44.13-67.11
	c-43.42-6.5-85-26.99-117.86-62.44c0,0,12.16,2.32,33.15,1.42c20.99-0.9,42.63-8.28,42.63-8.28s-15.07,2.1-41.39,0.51
	c-26.33-1.58-41.3-6.7-41.3-6.7s-15.93-11.5-27.97-32.81c-12.04-21.32-17.34-48.95-17.34-48.95s9.29,13.34,33.32,27.82
	c24.03,14.48,39.08,11.24,39.08,11.24s-17.6-6.22-41.75-23.26c-24.16-17.04-32.63-36.31-32.63-36.31s-1.98-16.2-0.73-40.06
	c1.25-23.86,8.26-36.86,8.26-36.86s2.29,16.13,16.39,40.99c14.1,24.86,29.54,30.43,29.54,30.43s-10.43-12.78-22.29-41.04
	c-11.86-28.25-9.9-45.74-9.9-45.74s9.02-16.05,25.67-32.32c16.65-16.26,41.82-28.99,41.82-28.99s-41.99,39.45-33.5,84.59
	c8.49,45.14,28.44,60.72,28.44,60.72s-12.43,33.38,13.22,69.32c25.65,35.94,74.07,40.25,74.07,40.25s-21.93-4.34-51.25-29.22
	c-29.32-24.88-28.28-52.93-28.28-52.93s12.69,21.31,35.99,37.68c23.3,16.38,39.36,18.07,39.36,18.07s4.03,9.6,13.69,22.09
	c0.2-0.51,0.38-0.97,0.53-1.37c4.3-11.67,11.73-36.41,9.56-49.53c-1.59-9.64-8.27-25.04-19.21-22.95c0,0,5-5.22,11.07-4.81
	c6.07,0.41,9.52,3.33,9.52,3.33s3.25-1.83,5.49-1.71c2.24,0.12,6.52,0.49,11.03,8.19c52.44,89.4-19.28-20,20.95,62.68l2.16,4.71
	c8.86-11.77,12.58-20.63,12.58-20.63s16.06-1.69,39.36-18.07c23.3-16.38,35.99-37.68,35.99-37.68s1.04,28.05-28.28,52.93
	c-29.32,24.88-51.25,29.22-51.25,29.22s48.42-4.31,74.07-40.25c25.65-35.94,13.22-69.32,13.22-69.32s19.95-15.58,28.44-60.72
	c8.49-45.14-33.5-84.59-33.5-84.59s25.17,12.73,41.82,28.99c16.65,16.26,25.67,32.32,25.67,32.32s1.96,17.49-9.9,45.74
	c-11.86,28.26-22.29,41.04-22.29,41.04s15.44-5.57,29.54-30.43c14.1-24.86,16.39-40.99,16.39-40.99s7.01,13,8.26,36.86
	c1.25,23.86-0.73,40.06-0.73,40.06s-8.48,19.28-32.63,36.31c-24.16,17.04-41.75,23.26-41.75,23.26s15.05,3.24,39.08-11.24
	c24.03-14.48,33.32-27.82,33.32-27.82s-5.3,27.64-17.34,48.95c-12.04,21.32-27.97,32.81-27.97,32.81s-14.97,5.11-41.29,6.7
	c-26.33,1.58-41.39-0.51-41.39-0.51s21.64,7.37,42.63,8.28c20.99,0.9,33.15-1.42,33.15-1.42c-34.12,34.24-77.11,55.31-121.63,62.21
	L298.14,418.28L298.14,418.28z M208.8,199.14c0,0,0.81,0.1,5.09,7.05c4.29,6.94,7.67,17.8,7.67,17.8s0.04-2.08-3.69-13.33
	c-3.73-11.24-5.74-11.59-5.74-11.59s-0.67-0.21-1.56-0.28C209.67,198.72,208.8,199.14,208.8,199.14z"/>
</svg>
